<?xml version="1.0"?>
<!-- Generated by SVGo -->
<svg width="600" height="400"
     xmlns="http://www.w3.org/2000/svg"
     xmlns:xlink="http://www.w3.org/1999/xlink">
<rect x="0" y="0" width="600" height="400" rx="15" ry="15" style="fill:snow;stroke:black;stroke-width:3" />
<g style="fill:none;stroke:gray;stroke-width:1">
<line x1="20" y1="200" x2="580" y2="200" />
<polyline points="571,195 580,200 571,205" />
<text x="570" y="185" style="text-anchor:middle;font-size:20px;fill:black;stroke-width:1;alignment-baseline:middle" >X</text>
<line x1="300" y1="380" x2="300" y2="20" />
<polyline points="295,29 300,20 305,29" />
<text x="315" y="20" style="text-anchor:middle;font-size:20px;fill:black;stroke-width:1;alignment-baseline:middle" >Y</text>
</g>
<g style="fill:none;stroke:black;stroke-width:3">
<circle cx="324" cy="120" r="5" style="fill:black" />
<text x="345" y="120" style="text-anchor:middle;font-size:20px;fill:black;stroke-width:1;alignment-baseline:middle" >P</text>
</g>
<g style="fill:none;stroke:black;stroke-width:3">
<line x1="167" y1="347" x2="373" y2="53" />
<text x="215" y="310" style="text-anchor:middle;font-size:20px;fill:black;stroke-width:1;alignment-baseline:middle" >R1</text>
<line x1="483" y1="347" x2="277" y2="53" />
<text x="435" y="310" style="text-anchor:middle;font-size:20px;fill:black;stroke-width:1;alignment-baseline:middle" >R2</text>
</g>
<g style="fill:none;stroke:black;stroke-width:3">
<line x1="20" y1="350" x2="580" y2="350" />
<text x="50" y="335" style="text-anchor:middle;font-size:20px;fill:black;stroke-width:1;alignment-baseline:middle" >D1</text>
<line x1="130" y1="350" x2="170" y2="350" style="stroke-width:10" />
<text x="150" y="370" style="text-anchor:middle;font-size:20px;fill:black;stroke-width:1;alignment-baseline:middle" >B1.a</text>
<line x1="480" y1="350" x2="520" y2="350" style="stroke-width:10" />
<text x="500" y="370" style="text-anchor:middle;font-size:20px;fill:black;stroke-width:1;alignment-baseline:middle" >B2.b</text>
<line x1="20" y1="50" x2="580" y2="50" />
<text x="50" y="65" style="text-anchor:middle;font-size:20px;fill:black;stroke-width:1;alignment-baseline:middle" >D2</text>
<line x1="240" y1="50" x2="280" y2="50" style="stroke-width:10" />
<text x="260" y="30" style="text-anchor:middle;font-size:20px;fill:black;stroke-width:1;alignment-baseline:middle" >B2.a</text>
<line x1="370" y1="50" x2="410" y2="50" style="stroke-width:10" />
<text x="390" y="30" style="text-anchor:middle;font-size:20px;fill:black;stroke-width:1;alignment-baseline:middle" >B1.b</text>
</g>
</svg>
